<svg width="12" height="16" viewBox="0 0 12 16" fill="none" xmlns="http://www.w3.org/2000/svg">
<path d="M5.99999 2.66669V0.666687L3.33332 3.33335L5.99999 6.00002V4.00002C8.20666 4.00002 9.99999 5.79335 9.99999 8.00002C9.99999 8.67335 9.83332 9.31335 9.53332 9.86669L10.5067 10.84C11.0267 10.02 11.3333 9.04669 11.3333 8.00002C11.3333 5.05335 8.94666 2.66669 5.99999 2.66669ZM5.99999 12C3.79332 12 1.99999 10.2067 1.99999 8.00002C1.99999 7.32669 2.16666 6.68669 2.46666 6.13335L1.49332 5.16002C0.973323 5.98002 0.666656 6.95335 0.666656 8.00002C0.666656 10.9467 3.05332 13.3334 5.99999 13.3334V15.3334L8.66666 12.6667L5.99999 10V12Z" fill="#48BB78"/>
</svg>
