<svg width="18" height="18" viewBox="0 0 18 18" fill="none" xmlns="http://www.w3.org/2000/svg">
<path d="M8.99999 0.666672C4.39999 0.666672 0.666656 4.40001 0.666656 9.00001C0.666656 13.6 4.39999 17.3333 8.99999 17.3333C13.6 17.3333 17.3333 13.6 17.3333 9.00001C17.3333 4.40001 13.6 0.666672 8.99999 0.666672ZM4.89166 14.2333C5.24999 13.4833 7.43332 12.75 8.99999 12.75C10.5667 12.75 12.7583 13.4833 13.1083 14.2333C11.975 15.1333 10.55 15.6667 8.99999 15.6667C7.44999 15.6667 6.02499 15.1333 4.89166 14.2333ZM14.3 13.025C13.1083 11.575 10.2167 11.0833 8.99999 11.0833C7.78332 11.0833 4.89166 11.575 3.69999 13.025C2.84999 11.9083 2.33332 10.5167 2.33332 9.00001C2.33332 5.32501 5.32499 2.33334 8.99999 2.33334C12.675 2.33334 15.6667 5.32501 15.6667 9.00001C15.6667 10.5167 15.15 11.9083 14.3 13.025ZM8.99999 4.00001C7.38332 4.00001 6.08332 5.30001 6.08332 6.91667C6.08332 8.53334 7.38332 9.83334 8.99999 9.83334C10.6167 9.83334 11.9167 8.53334 11.9167 6.91667C11.9167 5.30001 10.6167 4.00001 8.99999 4.00001ZM8.99999 8.16667C8.30832 8.16667 7.74999 7.60834 7.74999 6.91667C7.74999 6.22501 8.30832 5.66667 8.99999 5.66667C9.69166 5.66667 10.25 6.22501 10.25 6.91667C10.25 7.60834 9.69166 8.16667 8.99999 8.16667Z" fill="#7F8C88"/>
</svg>
